<?xml version="1.0" encoding="UTF-8"?>
<svg version="1.1" xmlns="http://www.w3.org/2000/svg" width="439" height="115">
<path d="M0 0 C144.87 0 289.74 0 439 0 C439 37.95 439 75.9 439 115 C294.13 115 149.26 115 0 115 C0 77.05 0 39.1 0 0 Z " fill="#FCFCFC" transform="translate(0,0)"/>
<path d="M0 0 C1.78965558 0.88939928 3.5530934 1.8323131 5.296875 2.80859375 C6.33110596 3.38617432 7.36533691 3.96375488 8.4309082 4.55883789 C9.5262085 5.17879639 10.62150879 5.79875488 11.75 6.4375 C12.86785889 7.06841553 13.98571777 7.69933105 15.13745117 8.34936523 C21.57825274 12.00510576 27.9976257 15.69255725 34.3125 19.5625 C34.94446289 19.94269287 35.57642578 20.32288574 36.22753906 20.71459961 C40.56383915 23.4280941 43.70011749 26.40023498 46 31 C46.10469745 32.47936909 46.14866863 33.96327217 46.16113281 35.44628906 C46.17074036 36.36774719 46.1803479 37.28920532 46.19024658 38.23858643 C46.19449646 39.23750916 46.19874634 40.23643188 46.203125 41.265625 C46.20882507 42.29177917 46.21452515 43.31793335 46.22039795 44.37518311 C46.22985703 46.55073004 46.23638552 48.72629137 46.24023438 50.90185547 C46.24992004 54.22258737 46.28092705 57.54269523 46.3125 60.86328125 C46.31903199 62.97655882 46.32428169 65.08984083 46.328125 67.203125 C46.3404718 68.19395081 46.3528186 69.18477661 46.36553955 70.20562744 C46.34529469 76.50667021 45.6576855 80.86047021 41.45141602 85.8293457 C35.20095835 91.27692866 28.1493552 95.18694733 20.9375 99.1875 C19.06906019 100.23697059 17.20208377 101.28901291 15.33511353 102.34109497 C13.57644028 103.32791976 11.81149045 104.30353245 10.04638672 105.27880859 C7.65252329 106.631328 5.3684627 108.05396296 3.06640625 109.55078125 C-1.04617285 111.49443328 -2.62777406 111.32464573 -7 110 C-11.14158567 108.03568343 -15.09674257 105.79545 -19.0625 103.5 C-20.17197998 102.86578125 -21.28145996 102.2315625 -22.42456055 101.578125 C-25.62686682 99.73606764 -28.81629565 97.87399209 -32 96 C-32.81275391 95.52304688 -33.62550781 95.04609375 -34.46289062 94.5546875 C-42.33184156 89.88630169 -48.29232651 85.73067011 -52 77 C-52.24050903 74.62078857 -52.24050903 74.62078857 -52.22705078 71.95605469 C-52.22682419 70.45495148 -52.22682419 70.45495148 -52.22659302 68.92352295 C-52.21627045 67.85047913 -52.20594788 66.7774353 -52.1953125 65.671875 C-52.1924826 64.56773254 -52.18965271 63.46359009 -52.18673706 62.32598877 C-52.17554489 58.8005488 -52.15044175 55.27536315 -52.125 51.75 C-52.11496897 49.35937867 -52.10584333 46.96875336 -52.09765625 44.578125 C-52.0756087 38.71866327 -52.04214053 32.85934981 -52 27 C-51.32759277 26.61368408 -50.65518555 26.22736816 -49.96240234 25.8293457 C-47.35510561 24.33051522 -44.74857527 22.83036066 -42.14239502 21.32958984 C-40.96625048 20.65274926 -39.7897784 19.97647751 -38.61297607 19.30078125 C-32.2069966 15.62247933 -25.82514961 11.91670753 -19.515625 8.07421875 C-18.51998535 7.4711792 -17.5243457 6.86813965 -16.49853516 6.24682617 C-14.61166533 5.09979528 -12.73087559 3.94269032 -10.85693359 2.7746582 C-10.00953613 2.2612085 -9.16213867 1.74775879 -8.2890625 1.21875 C-7.55381348 0.76435547 -6.81856445 0.30996094 -6.06103516 -0.15820312 C-3.47501445 -1.21442196 -2.57846493 -1.0176545 0 0 Z " fill="#2670B5" transform="translate(66,2)"/>
<path d="M0 0 C3.62239559 0.94352434 6.36664425 2.35023378 9.60668945 4.22338867 C10.49417122 4.73262627 10.49417122 4.73262627 11.39958191 5.25215149 C12.64663407 5.96996332 13.89117674 6.69215077 15.13330078 7.41845703 C17.00387633 8.51202056 18.88150932 9.59247603 20.76098633 10.6706543 C24.26685485 12.69016328 27.74351083 14.75382061 31.2121582 16.83666992 C32.14334473 17.39177246 33.07453125 17.946875 34.03393555 18.51879883 C34.83911621 19.0220166 35.64429687 19.52523438 36.47387695 20.04370117 C37.15796631 20.46756104 37.84205566 20.8914209 38.546875 21.328125 C41.45071363 23.95865116 42.09872742 27.05885884 42.6496582 30.83666992 C42.05281642 34.9292993 40.32850961 36.21610169 37.2121582 38.83666992 C36.2221582 39.67198242 36.2221582 39.67198242 35.2121582 40.52416992 C28.96374727 44.62468959 22.46060539 44.95123241 15.2121582 43.83666992 C6.14359983 40.70222024 -2.29125068 35.12290196 -10.3347168 29.98901367 C-13.16678045 28.6586653 -13.91371782 28.94639064 -16.7878418 29.83666992 C-17.11072984 35.5286702 -17.34570378 41.21529221 -17.50195312 46.91430664 C-17.56709515 48.84917037 -17.6556493 50.78339958 -17.76855469 52.71606445 C-18.80437233 63.05614454 -18.80437233 63.05614454 -15.56256104 72.47418213 C-12.08222232 75.53726484 -8.07525108 77.13360965 -3.7878418 78.83666992 C-1.85498976 79.93362895 0.06504749 81.0539968 1.9621582 82.21166992 C6.66590011 84.7534864 10.9478541 85.97366925 16.2121582 86.83666992 C16.2121582 87.49666992 16.2121582 88.15666992 16.2121582 88.83666992 C13.84724066 90.21169196 11.47287305 91.5611145 9.0871582 92.89916992 C8.08942383 93.48408203 8.08942383 93.48408203 7.0715332 94.08081055 C6.41411133 94.4449707 5.75668945 94.80913086 5.0793457 95.18432617 C4.48234863 95.52471924 3.88535156 95.8651123 3.27026367 96.21582031 C-0.84084165 97.45597937 -4.10875452 96.17498993 -7.83642578 94.31787109 C-8.891604 93.67825439 -9.94678223 93.0386377 -11.03393555 92.37963867 C-11.60813736 92.03540359 -12.18233917 91.69116852 -12.77394104 91.33650208 C-14.59659016 90.24124123 -16.41101609 89.13315266 -18.2253418 88.02416992 C-20.03397554 86.93135811 -21.84418152 85.84119177 -23.6546936 84.75149536 C-25.37077665 83.71518218 -27.08109329 82.66933914 -28.79125977 81.62329102 C-31.12802691 80.23006452 -33.4566741 78.97783441 -35.88549805 77.76245117 C-39.47646519 75.37975023 -41.23924152 72.78291122 -42.7878418 68.83666992 C-43.39201475 65.39557971 -43.46638744 62.00898507 -43.49487305 58.52026367 C-43.51055832 57.54557632 -43.52624359 56.57088898 -43.54240417 55.56666565 C-43.56693573 53.51524675 -43.58059816 51.46367216 -43.58398438 49.41210938 C-43.60032079 46.27820014 -43.68595865 43.15091626 -43.77416992 40.01831055 C-43.78949687 38.0189897 -43.80070425 36.01963214 -43.80737305 34.02026367 C-43.8412764 33.0888707 -43.87517975 32.15747772 -43.91011047 31.19786072 C-43.85593103 27.30909704 -43.79224896 24.83737518 -40.95794678 22.01351929 C-38.63385405 20.43663897 -36.28629869 19.11671416 -33.7878418 17.83666992 C-32.6031037 17.13609958 -31.42124973 16.43061013 -30.2434082 15.71850586 C-29.13658691 15.09234375 -28.02976562 14.46618164 -26.8894043 13.82104492 C-25.98694473 13.30818939 -25.98694473 13.30818939 -25.06625366 12.78497314 C-23.18355184 11.71571489 -21.29836433 10.65094479 -19.4128418 9.58666992 C-17.50636329 8.50731275 -15.60043902 7.42699297 -13.69515991 6.34552002 C-11.98313829 5.37422385 -10.26956724 4.40566022 -8.5559082 3.43725586 C-2.37123598 -0.13892257 -2.37123598 -0.13892257 0 0 Z " fill="#FCFDFE" transform="translate(63.787841796875,9.163330078125)"/>
<path d="M0 0 C20.13 0 40.26 0 61 0 C61 0.99 61 1.98 61 3 C60.02111816 3.54188965 60.02111816 3.54188965 59.02246094 4.09472656 C46.55865381 11.00548197 34.15344411 17.96125997 22.02050781 25.44238281 C21.2519043 25.91256836 20.48330078 26.38275391 19.69140625 26.8671875 C19.02310791 27.28081543 18.35480957 27.69444336 17.66625977 28.12060547 C16 29 16 29 14 29 C14.01634698 35.95647764 14.07137425 42.91189953 14.15258789 49.86791992 C14.17570435 52.23145705 14.19014859 54.59509625 14.19555664 56.95874023 C14.20489223 60.36766715 14.24598682 63.7750024 14.29296875 67.18359375 C14.2890361 68.23083115 14.28510345 69.27806854 14.28105164 70.35704041 C14.4174383 77.30276107 15.7479974 82.40916326 20 88 C22.10640654 89.91677787 24.26464286 91.3051405 26.75 92.6875 C27.41741211 93.08267822 28.08482422 93.47785645 28.77246094 93.88500977 C31.16539816 95.28709648 33.57969501 96.64569699 36 98 C37.546875 98.87108398 37.546875 98.87108398 39.125 99.75976562 C43.59868491 102.27621339 48.07365556 104.78936848 52.56933594 107.26635742 C53.60348633 107.83717041 54.63763672 108.4079834 55.703125 108.99609375 C56.62770508 109.50325928 57.55228516 110.0104248 58.50488281 110.53295898 C61 112 61 112 65 115 C43.55 115 22.1 115 0 115 C0 77.05 0 39.1 0 0 Z " fill="#FDFEFE" transform="translate(0,0)"/>
<path d="M0 0 C22 0 22 0 29 4 C32.21251428 7.62703225 32.52699652 11.09891702 32.34765625 15.78515625 C31.78975404 19.33943214 30.38894889 21.3595828 28 24 C21.3951718 28.06081734 15.57361304 27.21434754 8 27 C8 32.61 8 38.22 8 44 C5.36 44 2.72 44 0 44 C0 29.48 0 14.96 0 0 Z " fill="#050505" transform="translate(138,55)"/>
<path d="M0 0 C2.9375 1.375 2.9375 1.375 5 3 C5 3.66 5 4.32 5 5 C5.4846875 4.6390625 5.969375 4.278125 6.46875 3.90625 C11.6096735 0.34714912 14.75717175 -0.72832996 21 0 C23.95831513 0.87949909 24.77389147 1.68714871 26.5871582 4.19604492 C28.23381693 7.46403792 28.3467744 9.53493245 28.29296875 13.17578125 C28.2784668 14.91118164 28.2784668 14.91118164 28.26367188 16.68164062 C28.23853516 17.87982422 28.21339844 19.07800781 28.1875 20.3125 C28.16719727 22.1387793 28.16719727 22.1387793 28.14648438 24.00195312 C28.11119261 27.00175345 28.06188481 30.00064975 28 33 C25.69 33 23.38 33 21 33 C20.970271 31.97060303 20.970271 31.97060303 20.93994141 30.92041016 C20.84489055 27.82154221 20.73513153 24.72336706 20.625 21.625 C20.5940625 20.54476562 20.563125 19.46453125 20.53125 18.3515625 C20.47324219 16.8046875 20.47324219 16.8046875 20.4140625 15.2265625 C20.3826416 14.27346191 20.3512207 13.32036133 20.31884766 12.33837891 C20.21444204 9.81104824 20.21444204 9.81104824 18 8 C16.09178939 7.64486621 16.09178939 7.64486621 14 7.6875 C12.948125 7.66236328 12.948125 7.66236328 11.875 7.63671875 C11.25625 7.75660156 10.6375 7.87648438 10 8 C7.84250216 11.23624676 7.71639512 12.34394066 7.5859375 16.10546875 C7.54726563 17.08837891 7.50859375 18.07128906 7.46875 19.08398438 C7.4378125 20.10814453 7.406875 21.13230469 7.375 22.1875 C7.33632813 23.22326172 7.29765625 24.25902344 7.2578125 25.32617188 C7.16351704 27.88393622 7.07791798 30.44169287 7 33 C4.69 33 2.38 33 0 33 C-0.01981934 32.31373535 -0.03963867 31.6274707 -0.06005859 30.92041016 C-0.15510945 27.82154221 -0.26486847 24.72336706 -0.375 21.625 C-0.4059375 20.54476562 -0.436875 19.46453125 -0.46875 18.3515625 C-0.50742187 17.3203125 -0.54609375 16.2890625 -0.5859375 15.2265625 C-0.63306885 13.79691162 -0.63306885 13.79691162 -0.68115234 12.33837891 C-0.78555796 9.81104824 -0.78555796 9.81104824 -3 8 C-4.90821061 7.64486621 -4.90821061 7.64486621 -7 7.6875 C-8.051875 7.66236328 -8.051875 7.66236328 -9.125 7.63671875 C-9.74375 7.75660156 -10.3625 7.87648438 -11 8 C-13.15749784 11.23624676 -13.28360488 12.34394066 -13.4140625 16.10546875 C-13.45273438 17.08837891 -13.49140625 18.07128906 -13.53125 19.08398438 C-13.57765625 20.62022461 -13.57765625 20.62022461 -13.625 22.1875 C-13.66367188 23.22326172 -13.70234375 24.25902344 -13.7421875 25.32617188 C-13.83648296 27.88393622 -13.92208202 30.44169287 -14 33 C-16.31 33 -18.62 33 -21 33 C-21 22.44 -21 11.88 -21 1 C-18.69 1 -16.38 1 -14 1 C-13.67 1.99 -13.34 2.98 -13 4 C-12.154375 3.34 -11.30875 2.68 -10.4375 2 C-6.4734284 -0.30636893 -4.5102277 -0.57402898 0 0 Z " fill="#040404" transform="translate(264,66)"/>
<path d="M0 0 C1.03898437 0.54269531 2.07796875 1.08539063 3.1484375 1.64453125 C18.95884409 9.80229089 30.43445276 13.41625078 48 8 C49.67475626 7.3539244 51.34436767 6.69361646 53 6 C53.46747982 12.57068864 53.47616445 16.75649307 49 22 C45.00051954 26.47132928 39.91079763 27.71007992 34.05859375 28.29296875 C27.43385991 28.4706436 21.9747595 27.87706292 16 25 C15.35853027 24.70899414 14.71706055 24.41798828 14.05615234 24.11816406 C1.13920916 18.06525483 1.13920916 18.06525483 -0.71826172 13.06738281 C-1.38510065 8.62389684 -0.84560836 4.40421018 0 0 Z " fill="#FBFCFD" transform="translate(53,62)"/>
<path d="M0 0 C3.46117075 2.68417324 4.66002399 4.24548732 6.0625 8.375 C6.3925 11.345 6.7225 14.315 7.0625 17.375 C-0.8575 17.375 -8.7775 17.375 -16.9375 17.375 C-15.62452878 23.36038237 -15.62452878 23.36038237 -11.9375 25.375 C-6.88826469 25.83402139 -4.85798851 25.38070786 -0.9375 22.375 C2.43286311 22.61574022 3.65048021 22.96298021 6.0625 25.375 C1.56399482 30.25909134 -1.6331295 32.39815954 -8.25 32.75 C-13.18488094 32.61017837 -16.98871356 31.36110261 -20.9375 28.375 C-25.17927923 23.28486493 -25.57014756 18.79816296 -25.31640625 12.25 C-24.55728916 6.49010127 -22.4562708 3.55964122 -17.8125 -0.0625 C-12.16120521 -2.86389291 -5.62876593 -2.83223318 0 0 Z " fill="#0F0F0F" transform="translate(323.9375,67.625)"/>
<path d="M0 0 C3.85544798 1.99657127 5.59805092 3.39707638 8 7 C8.22705078 9.72729492 8.22705078 9.72729492 8.1953125 12.98046875 C8.18886719 14.14384766 8.18242187 15.30722656 8.17578125 16.50585938 C8.15902344 17.72080078 8.14226562 18.93574219 8.125 20.1875 C8.11597656 21.41404297 8.10695312 22.64058594 8.09765625 23.90429688 C8.07406017 26.93639295 8.04113841 29.96809938 8 33 C5.69 33 3.38 33 1 33 C1 32.01 1 31.02 1 30 C0.175 30.66 -0.65 31.32 -1.5 32 C-4.6998051 34.11307884 -7.2311501 34.58487763 -11.03515625 34.40234375 C-14.64000351 33.66417423 -17.43155683 31.56844317 -20 29 C-20.60480782 25.29459515 -21.05719632 21.51838935 -18.8359375 18.328125 C-12.86376468 13.12161536 -6.44546703 13.86988504 1 14 C0.01 11.69 -0.98 9.38 -2 7 C-6.87822803 6.53995878 -6.87822803 6.53995878 -11.0625 8.625 C-12.0215625 9.305625 -12.0215625 9.305625 -13 10 C-16.25 9.1875 -16.25 9.1875 -19 8 C-17.50452468 4.92596739 -16.24807656 3.17546878 -13.4375 1.1875 C-8.84888356 -0.39765841 -4.80516231 -0.71765411 0 0 Z " fill="#090909" transform="translate(192,66)"/>
<path d="M0 0 C4.11909625 2.36628933 5.55660371 4.56488763 7 9 C7.22705078 11.77075195 7.22705078 11.77075195 7.1953125 14.73828125 C7.18886719 15.80498047 7.18242187 16.87167969 7.17578125 17.97070312 C7.15902344 19.07349609 7.14226562 20.17628906 7.125 21.3125 C7.11597656 22.43462891 7.10695313 23.55675781 7.09765625 24.71289062 C7.07414486 27.47547909 7.04128155 30.23762932 7 33 C4.36 33 1.72 33 -1 33 C-1.01458252 32.28344238 -1.02916504 31.56688477 -1.04418945 30.82861328 C-1.11849 27.59352017 -1.21520861 24.35947981 -1.3125 21.125 C-1.33505859 19.99707031 -1.35761719 18.86914062 -1.38085938 17.70703125 C-1.4340332 16.09248047 -1.4340332 16.09248047 -1.48828125 14.4453125 C-1.51446533 13.45031738 -1.54064941 12.45532227 -1.56762695 11.43017578 C-1.71031006 10.62821777 -1.85299316 9.82625977 -2 9 C-4.89579382 6.62777005 -4.89579382 6.62777005 -8.5625 7.25 C-12.04592612 7.6858444 -12.04592612 7.6858444 -14 10 C-14.37095708 12.42246595 -14.37095708 12.42246595 -14.4140625 15.2265625 C-14.47207031 16.7734375 -14.47207031 16.7734375 -14.53125 18.3515625 C-14.5621875 19.43179688 -14.593125 20.51203125 -14.625 21.625 C-14.68300781 23.25695312 -14.68300781 23.25695312 -14.7421875 24.921875 C-14.83666247 27.61441165 -14.92222431 30.30693757 -15 33 C-17.64 33 -20.28 33 -23 33 C-23 22.44 -23 11.88 -23 1 C-20.69 1 -18.38 1 -16 1 C-16 2.32 -16 3.64 -16 5 C-15.030625 4.175 -14.06125 3.35 -13.0625 2.5 C-8.81847889 -0.5216053 -5.08231265 -1.02981194 0 0 Z " fill="#080808" transform="translate(360,66)"/>
<path d="M0 0 C2.97 0 5.94 0 9 0 C10.17076229 2.95677211 11.33676671 5.91526743 12.5 8.875 C12.83386719 9.71675781 13.16773438 10.55851562 13.51171875 11.42578125 C13.98544922 12.63427734 13.98544922 12.63427734 14.46875 13.8671875 C14.76201172 14.61081543 15.05527344 15.35444336 15.35742188 16.12060547 C16 18 16 18 16 20 C16.66 20 17.32 20 18 20 C18.11214844 19.16210938 18.22429687 18.32421875 18.33984375 17.4609375 C19.06419756 13.66343766 20.22820885 10.25153492 21.5625 6.625 C21.79646484 5.98433594 22.03042969 5.34367187 22.27148438 4.68359375 C22.84299619 3.1206839 23.42084229 1.56009273 24 0 C26.64 0 29.28 0 32 0 C26.73896662 14.49558985 20.86231934 28.74013512 15 43 C12.36 43 9.72 43 7 43 C7.39574219 42.16597656 7.79148438 41.33195312 8.19921875 40.47265625 C8.69035156 39.34730469 9.18148437 38.22195312 9.6875 37.0625 C10.43580078 35.40927734 10.43580078 35.40927734 11.19921875 33.72265625 C12.29158421 28.64448904 10.99126066 25.67701714 9 21 C8.63688721 20.1143335 8.27377441 19.22866699 7.8996582 18.31616211 C6.73133226 15.51065711 5.52785297 12.72292619 4.3125 9.9375 C3.89677734 8.97650391 3.48105469 8.01550781 3.05273438 7.02539062 C2.03848513 4.68212514 1.02085998 2.34039113 0 0 Z " fill="#060606" transform="translate(205,67)"/>
<path d="M0 0 C2.82064958 1.02799257 4.54508493 2.17187176 7 4 C7.33 4.99 7.66 5.98 8 7 C5 9 5 9 2.9375 8.6875 C1 8 1 8 -1 7 C-3.3329866 6.95977609 -5.66706666 6.95679753 -8 7 C-8.33 8.32 -8.66 9.64 -9 11 C-8.43152344 11.18175781 -7.86304688 11.36351563 -7.27734375 11.55078125 C6.31769723 15.97654584 6.31769723 15.97654584 9 20 C9.22370801 23.11470381 8.85723133 25.99969035 8 29 C4.39186718 32.70064904 1.46363707 34.17019417 -3.625 34.375 C-9.05922658 34.33556439 -13.00390743 32.70395003 -17 29 C-17.33 28.01 -17.66 27.02 -18 26 C-15 24 -15 24 -12.9375 24.25 C-11 25 -11 25 -9 27 C-6.78927023 27.24253813 -6.78927023 27.24253813 -4.375 27.125 C-3.55773437 27.10695313 -2.74046875 27.08890625 -1.8984375 27.0703125 C-0.95871094 27.03550781 -0.95871094 27.03550781 0 27 C0.33 25.68 0.66 24.36 1 23 C-3.22323531 20.72595022 -7.36438387 19.17406478 -11.94921875 17.84375 C-14.28802264 16.88149926 -15.4696152 16.01041233 -17 14 C-17.77591973 7.01672241 -17.77591973 7.01672241 -15.1875 3.625 C-9.92188545 -0.28659938 -6.45856676 -0.81098493 0 0 Z " fill="#0B0B0B" transform="translate(414,66)"/>
<path d="M0 0 C5.41443318 1.58230011 9.93214351 4.16283856 14.70117188 7.078125 C22.4500918 11.67770537 30.58946963 13.48326059 39.46484375 11.4296875 C43.67638713 10.09825116 47.26368842 8.37765282 51 6 C51.66 6 52.32 6 53 6 C53.3125 9.25 53.3125 9.25 53 13 C48.61449691 18.0928423 42.10136834 19.73468063 35.62109375 20.2890625 C21.48077134 20.62464728 12.58344647 15.41695169 1 8 C0 7 0 7 -0.0625 3.4375 C-0.041875 2.303125 -0.02125 1.16875 0 0 Z " fill="#F8FAFC" transform="translate(53,47)"/>
<path d="M0 0 C0 3.3 0 6.6 0 10 C2.31 10 4.62 10 7 10 C7 11.65 7 13.3 7 15 C4.69 15 2.38 15 0 15 C0.33 21.6 0.66 28.2 1 35 C3.31 35.33 5.62 35.66 8 36 C8 37.98 8 39.96 8 42 C4.85088521 43.57455739 2.47991184 43.34799118 -1 43 C-5.22967185 40.64846711 -5.22967185 40.64846711 -7 38 C-7.74123913 34.03919172 -7.56615181 30.19923744 -7.375 26.1875 C-7.34792969 25.11306641 -7.32085937 24.03863281 -7.29296875 22.93164062 C-7.22241045 20.28570432 -7.12388756 17.6438876 -7 15 C-8.65 15 -10.3 15 -12 15 C-12 13.35 -12 11.7 -12 10 C-10.35 10 -8.7 10 -7 10 C-7.103125 8.906875 -7.20625 7.81375 -7.3125 6.6875 C-7.209375 5.470625 -7.10625 4.25375 -7 3 C-4.60259082 1.04421883 -3.12413392 0 0 0 Z " fill="#050505" transform="translate(384,57)"/>
<path d="M0 0 C3 2.4375 3 2.4375 5 5 C5.33 5.33 5.66 5.66 6 6 C6.38144737 9.24230263 6.65935301 11.8518602 4.98828125 14.76171875 C2.81813223 17.45322489 1.30823626 18.89725458 -2 20 C-6.19987818 20.38887761 -8.29607238 20.45908323 -11.875 18.125 C-14.80038857 15.19961143 -14.96503325 14.42659437 -15.3125 10.1875 C-15.28232024 6.86772673 -15.0060988 6.00955479 -13.125 3.0625 C-9.25125182 -0.69731441 -5.20805262 -0.83652659 0 0 Z " fill="#0D0D0D" transform="translate(222,23)"/>
<path d="M0 0 C3.4203866 1.17013226 3.91540482 1.87310723 6 5 C6.54531842 8.06526351 6.54325893 10.93408329 6 14 C3.81840855 16.75569447 2.12822506 18.43588747 -1 20 C-6.86390959 20.67660495 -6.86390959 20.67660495 -9.7578125 18.953125 C-13.36054402 15.99435999 -14.85164276 14.31048895 -15.375 9.6875 C-15 6 -15 6 -12.625 3.125 C-8.46560213 -0.24213161 -5.23850118 -0.41575406 0 0 Z " fill="#0E0E0E" transform="translate(175,23)"/>
<path d="M0 0 C1.65 0 3.3 0 5 0 C5.33 3.3 5.66 6.6 6 10 C6.66 9.67 7.32 9.34 8 9 C14.22804809 8.54705105 14.22804809 8.54705105 16.7109375 10.00390625 C18.7602846 13.17728919 18.3116371 16.54296211 18.1875 20.1875 C18.16719727 21.31188477 18.16719727 21.31188477 18.14648438 22.45898438 C18.11118539 24.30629767 18.05737917 26.15324066 18 28 C16.68 28 15.36 28 14 28 C13.67 23.05 13.34 18.1 13 13 C11.02 13 9.04 13 7 13 C5.00383446 14.99616554 5.59016573 18.81701963 5.4375 21.5625 C5.39431641 22.27341797 5.35113281 22.98433594 5.30664062 23.71679688 C5.20028223 25.47761912 5.09961154 27.2387832 5 29 C3.35 29 1.7 29 0 29 C0 19.43 0 9.86 0 0 Z " fill="#141414" transform="translate(185,14)"/>
<path d="M0 0 C6.6 0 13.2 0 20 0 C18.31245049 4.21887379 16.65094817 7.23436466 14.125 10.9375 C13.44695312 11.93652344 12.76890625 12.93554688 12.0703125 13.96484375 C11.04550781 15.46724609 11.04550781 15.46724609 10 17 C8.66192194 18.99688539 7.33060805 20.99812108 6 23 C10.29 23 14.58 23 19 23 C19 23.99 19 24.98 19 26 C12.4 26 5.8 26 -1 26 C0.44101115 22.39747212 1.47327198 20.05566915 3.6015625 17.01171875 C4.09140625 16.30595703 4.58125 15.60019531 5.0859375 14.87304688 C5.59382812 14.15181641 6.10171875 13.43058594 6.625 12.6875 C7.140625 11.94693359 7.65625 11.20636719 8.1875 10.44335938 C9.45391484 8.62581956 10.72636168 6.8124853 12 5 C8.04 4.67 4.08 4.34 0 4 C0 2.68 0 1.36 0 0 Z " fill="#0A0A0A" transform="translate(139,16)"/>
<path d="M0 0 C8.82352941 -0.35294118 8.82352941 -0.35294118 13.125 0.9375 C15.74076227 3.8148385 15.51915766 6.06317562 15.46875 9.84375 C14.87739578 12.56397942 14.32522275 13.45801018 12 15 C7.96740923 15.40487859 4.06287095 15.13106035 0 15 C0 10.05 0 5.1 0 0 Z " fill="#F5F5F5" transform="translate(146,61)"/>
<path d="M0 0 C2.875 0.9375 2.875 0.9375 4.875 3.9375 C4.42216981 10.39033019 4.42216981 10.39033019 1.875 12.9375 C-1.22847254 13.26765665 -3.28281176 13.44281294 -6 11.8125 C-7.67968045 9.01303259 -7.58242277 7.13945936 -7.125 3.9375 C-4.91876051 0.62814076 -4.01949747 -0.08038995 0 0 Z " fill="#EEEEEE" transform="translate(172.125,26.0625)"/>
<path d="M0 0 C1.8125 1.0625 1.8125 1.0625 3 3 C3.38991688 7.36706908 3.46324069 9.30513897 1 13 C-2.5 13.3125 -2.5 13.3125 -6 13 C-8 11 -8 11 -8.3125 7.0625 C-8.23719217 4.46908648 -8.15247863 3.25680612 -6.8125 1 C-4.33474158 -0.36703913 -2.78844081 -0.41826612 0 0 Z " fill="#F3F3F3" transform="translate(220,26)"/>
<path d="M0 0 C0.99773437 0.02320312 1.99546875 0.04640625 3.0234375 0.0703125 C4.52777344 0.09738281 4.52777344 0.09738281 6.0625 0.125 C6.83335937 0.14820312 7.60421875 0.17140625 8.3984375 0.1953125 C8.0859375 3.5703125 8.0859375 3.5703125 7.3984375 7.1953125 C3.32994341 9.90764189 1.23366966 9.50231137 -3.6015625 9.1953125 C-4.2615625 8.5353125 -4.9215625 7.8753125 -5.6015625 7.1953125 C-5.18473173 3.0270048 -4.61912383 0.34678107 0 0 Z " fill="#F2F2F2" transform="translate(184.6015625,84.8046875)"/>
<path d="M0 0 C2.5 2.3125 2.5 2.3125 4 5 C4 5.99 4 6.98 4 8 C-1.28 8 -6.56 8 -12 8 C-11 3 -11 3 -9.9375 1.1875 C-6.78026015 -0.74758249 -3.52476363 -0.77303669 0 0 Z " fill="#EBEBEB" transform="translate(319,72)"/>
<path d="M0 0 C2.98808262 -0.38145736 5.04873568 -0.57297084 7.6796875 1.01171875 C9.77662293 4.1695298 9.31189841 7.53529018 9.1875 11.1875 C9.17396484 11.93708984 9.16042969 12.68667969 9.14648438 13.45898438 C9.11118539 15.30629767 9.05737917 17.15324066 9 19 C7.68 19 6.36 19 5 19 C4.67 14.05 4.34 9.1 4 4 C1.03 3.505 1.03 3.505 -2 3 C-1.34 2.01 -0.68 1.02 0 0 Z " fill="#030303" transform="translate(194,23)"/>
</svg>
